<?xml version="1.0" standalone="no"?>
<!DOCTYPE svg PUBLIC "-//W3C//DTD SVG 20010904//EN"
 "http://www.w3.org/TR/2001/REC-SVG-20010904/DTD/svg10.dtd">
<svg version="1.0" xmlns="http://www.w3.org/2000/svg"
 width="605.000000pt" height="605.000000pt" viewBox="0 0 605.000000 605.000000"
 preserveAspectRatio="xMidYMid meet">
<metadata>
Created by potrace 1.14, written by Peter Selinger 2001-2017
</metadata>
<g transform="translate(0.000000,605.000000) scale(0.100000,-0.100000)"
fill="#000000" stroke="none">
<path d="M2875 6021 c-2 -2 -28 -5 -57 -6 -119 -7 -252 -23 -328 -40 -14 -3
-38 -8 -54 -10 -15 -2 -35 -7 -45 -9 -9 -3 -32 -8 -51 -11 -19 -3 -40 -11 -47
-17 -7 -6 -13 -8 -13 -5 0 3 -15 1 -32 -4 -18 -6 -37 -11 -43 -13 -108 -28
-215 -67 -215 -79 0 -6 -3 -8 -6 -4 -4 3 -21 0 -39 -8 -19 -7 -36 -11 -39 -7
-3 3 -6 0 -6 -6 0 -7 -5 -12 -12 -12 -13 0 -299 -139 -308 -149 -3 -3 -17 -12
-32 -20 -16 -8 -28 -18 -28 -23 0 -5 -4 -7 -9 -4 -5 3 -20 -3 -34 -14 -14 -11
-30 -20 -36 -20 -6 0 -11 -4 -11 -9 0 -5 -18 -18 -40 -29 -22 -10 -37 -22 -33
-26 3 -3 -1 -6 -10 -6 -9 0 -21 -8 -26 -17 -6 -10 -11 -14 -11 -10 0 8 -13 -1
-61 -45 -16 -15 -29 -24 -29 -20 0 4 -7 -2 -15 -12 -8 -11 -15 -17 -15 -13 0
7 -25 -13 -118 -98 -30 -27 -59 -49 -64 -47 -4 1 -8 -2 -8 -6 0 -13 -108 -121
-114 -114 -3 3 -6 0 -6 -7 0 -7 -12 -25 -27 -41 -16 -16 -40 -44 -55 -62 -15
-18 -37 -44 -49 -58 -11 -14 -30 -38 -42 -53 -12 -16 -27 -34 -32 -40 -24 -28
-86 -117 -81 -117 3 0 -6 -12 -19 -26 -14 -15 -25 -33 -25 -40 0 -8 -4 -14 -8
-14 -7 0 -41 -52 -44 -67 -1 -5 -8 -14 -15 -21 -7 -7 -13 -19 -13 -27 0 -7 -4
-15 -8 -17 -8 -3 -20 -24 -91 -163 -43 -85 -81 -172 -81 -184 0 -6 -4 -19 -10
-29 -9 -16 -32 -70 -34 -82 -1 -3 -4 -9 -7 -15 -4 -5 -14 -35 -23 -65 -10 -30
-20 -62 -23 -70 -8 -20 -10 -28 -23 -75 -6 -22 -12 -47 -15 -55 -7 -28 -44
-195 -49 -227 -4 -18 -9 -48 -12 -65 -3 -18 -8 -51 -10 -73 -3 -22 -7 -53 -9
-70 -23 -167 -22 -570 1 -675 2 -14 7 -47 9 -75 6 -68 25 -172 60 -325 13 -56
45 -162 56 -181 7 -13 11 -24 9 -24 -7 0 23 -96 31 -101 5 -3 9 -11 9 -18 0
-8 7 -30 15 -50 8 -20 15 -39 16 -43 0 -5 7 -18 15 -30 8 -13 12 -23 8 -23 -3
0 5 -17 18 -37 12 -21 22 -40 20 -43 -1 -3 3 -12 10 -20 7 -9 15 -24 16 -35 2
-11 8 -21 13 -23 5 -2 9 -12 9 -23 0 -10 5 -19 10 -19 6 0 10 -4 10 -9 0 -5
16 -37 34 -70 19 -34 33 -61 30 -61 -2 0 5 -9 16 -20 11 -11 20 -24 20 -30 0
-9 19 -35 47 -65 7 -7 9 -15 6 -19 -4 -3 -2 -6 4 -6 5 0 15 -11 21 -25 7 -14
17 -31 22 -38 6 -7 40 -50 76 -97 36 -47 69 -86 75 -88 5 -2 9 -8 9 -14 0 -13
121 -140 197 -206 13 -10 20 -22 16 -26 -3 -3 1 -6 10 -6 9 0 17 -7 17 -15 0
-8 4 -15 10 -15 5 0 22 -12 38 -27 16 -16 48 -44 71 -63 24 -19 49 -41 56 -47
8 -7 16 -13 19 -13 3 0 14 -8 25 -17 30 -29 63 -53 109 -80 23 -14 42 -29 42
-34 0 -5 7 -9 15 -9 9 0 25 -9 37 -20 12 -11 28 -20 35 -20 7 0 13 -4 13 -10
0 -5 6 -10 14 -10 8 0 16 -3 18 -7 7 -18 317 -173 343 -173 8 0 16 -4 19 -9 5
-7 158 -69 178 -72 4 0 37 -11 73 -24 36 -13 65 -21 65 -18 0 3 6 0 14 -6 7
-6 25 -12 40 -13 14 -1 26 -6 26 -11 0 -4 4 -6 8 -3 5 3 42 -4 84 -15 42 -10
91 -21 109 -23 19 -3 36 -5 39 -6 6 -3 9 -3 80 -14 223 -35 584 -40 785 -12
49 7 129 19 145 21 8 2 29 5 45 9 17 3 41 8 55 11 14 3 36 7 50 10 14 4 36 8
50 11 37 8 43 10 60 17 8 4 47 15 85 26 39 10 82 24 98 30 15 6 27 7 27 3 0
-4 4 -2 8 3 6 10 83 37 97 35 3 0 13 6 21 15 9 8 22 15 31 15 8 0 27 6 41 14
15 7 81 40 147 72 66 32 138 70 160 83 22 14 43 24 48 23 4 -1 7 3 7 8 0 6 7
10 15 10 8 0 15 3 15 8 0 4 13 13 28 20 16 6 38 21 50 32 12 11 26 20 32 20 5
0 10 5 10 11 0 5 4 8 8 5 5 -3 23 8 41 24 18 17 35 30 39 30 4 0 21 13 39 28
17 15 47 38 65 52 18 14 45 37 61 52 15 14 27 24 27 21 0 -2 18 14 40 36 23
23 44 41 48 42 4 0 33 29 64 64 31 35 59 60 62 57 3 -3 6 -1 6 5 0 5 18 30 41
54 23 24 55 63 72 86 17 24 34 43 39 43 4 0 8 7 8 15 0 8 5 15 10 15 6 0 10 5
10 10 0 6 11 23 24 38 14 15 25 31 25 35 0 4 6 14 13 21 31 33 53 62 54 74 2
8 9 21 17 30 14 16 97 151 97 157 0 2 16 31 34 64 19 34 33 61 30 61 -3 0 4
13 16 30 12 16 19 30 15 30 -3 0 1 10 9 22 9 12 16 30 16 40 0 10 5 18 10 18
6 0 10 7 10 15 0 8 4 23 9 33 21 40 64 156 63 169 0 4 3 13 7 18 5 6 12 24 16
40 5 17 9 32 10 35 6 22 28 97 30 105 1 6 5 17 8 25 4 8 8 26 11 40 2 14 14
68 25 120 12 53 23 113 25 135 2 22 5 40 6 40 1 0 3 16 4 35 2 19 7 71 12 115
10 91 10 509 0 570 -4 22 -9 60 -12 85 -12 113 -21 174 -29 201 -4 11 -8 31
-10 42 -6 42 -34 163 -44 190 -6 15 -13 38 -15 50 -12 56 -15 67 -26 87 -6 12
-14 34 -16 48 -3 15 -14 46 -24 69 -10 23 -16 44 -12 47 3 3 0 6 -6 6 -7 0
-12 7 -12 15 0 8 -4 23 -9 33 -5 9 -19 40 -31 67 -29 66 -104 219 -110 225 -3
3 -16 25 -29 50 -14 25 -29 48 -34 51 -5 3 -8 9 -8 13 3 20 0 26 -11 20 -7 -5
-9 -2 -6 8 4 8 -2 20 -13 27 -11 6 -17 16 -14 21 3 6 1 10 -4 10 -6 0 -11 7
-11 15 0 8 -4 15 -10 15 -5 0 -10 7 -10 15 0 8 -4 15 -10 15 -5 0 -10 7 -10
15 0 8 -3 15 -7 15 -5 1 -24 24 -43 52 -19 28 -42 58 -51 67 -8 10 -22 26 -30
38 -43 62 -319 353 -335 353 -3 0 -18 12 -32 28 -15 15 -43 39 -64 54 -20 15
-42 33 -50 40 -24 23 -125 98 -131 98 -7 0 -36 23 -62 48 -8 6 -18 12 -23 12
-5 0 -22 11 -38 25 -16 14 -35 25 -41 25 -7 0 -13 5 -13 10 0 6 -3 9 -7 8 -5
-1 -27 10 -50 25 -24 15 -47 27 -53 27 -5 0 -10 5 -10 11 0 5 -4 7 -10 4 -5
-3 -10 -1 -10 4 0 6 -3 10 -7 9 -10 -1 -46 13 -53 21 -6 8 -61 34 -78 37 -8 1
-23 11 -35 21 -11 10 -17 12 -13 5 4 -7 -12 -2 -36 12 -24 13 -47 25 -53 26
-5 1 -21 7 -35 13 -14 6 -29 9 -34 8 -4 -1 -13 2 -20 7 -11 9 -95 39 -132 47
-10 2 -46 13 -79 24 -33 11 -71 22 -85 25 -14 2 -45 9 -70 16 -25 6 -56 13
-70 14 -14 1 -35 6 -47 10 -12 4 -39 9 -60 11 -21 2 -50 6 -65 9 -87 19 -530
41 -543 27z"/>
</g>
</svg>
